<svg width="41" height="41" viewBox="0 0 41 41" fill="none" xmlns="http://www.w3.org/2000/svg">
<path fill-rule="evenodd" clip-rule="evenodd" d="M20.4997 1.70801C10.1215 1.70801 1.70801 10.1215 1.70801 20.4997C1.70801 30.8778 10.1215 39.2913 20.4997 39.2913C30.8778 39.2913 39.2913 30.8778 39.2913 20.4997C39.2913 10.1215 30.8778 1.70801 20.4997 1.70801ZM18.6068 15.2636C18.9998 14.4898 19.2902 14.1225 19.531 13.9311C19.7121 13.7876 19.9581 13.6663 20.4997 13.6663C21.5674 13.6663 22.208 14.4693 22.208 15.3371C22.208 15.812 22.1158 16.0478 21.8629 16.3484C21.5093 16.7687 20.855 17.2795 19.5601 18.1353L18.7913 18.641V22.208C18.7913 22.6611 18.9713 23.0956 19.2917 23.416C19.6121 23.7364 20.0466 23.9163 20.4997 23.9163C20.9528 23.9163 21.3873 23.7364 21.7076 23.416C22.028 23.0956 22.208 22.6611 22.208 22.208V20.4706C23.1339 19.8317 23.9112 19.2201 24.475 18.5505C25.2898 17.5835 25.6247 16.5517 25.6247 15.3371C25.6247 12.8258 23.6891 10.2497 20.4997 10.2497C19.3312 10.2497 18.2976 10.5503 17.411 11.2525C16.5842 11.9068 16.0204 12.807 15.5592 13.721C15.452 13.9217 15.386 14.1417 15.365 14.3683C15.344 14.5948 15.3685 14.8233 15.437 15.0402C15.5055 15.2571 15.6166 15.4582 15.7639 15.6316C15.9111 15.8051 16.0916 15.9473 16.2945 16.05C16.4975 16.1528 16.719 16.214 16.9459 16.2299C17.1729 16.2459 17.4007 16.2165 17.6161 16.1432C17.8315 16.0699 18.0301 15.9544 18.2002 15.8034C18.3703 15.6523 18.5086 15.4688 18.6068 15.2636ZM22.208 28.1872C22.208 27.7341 22.028 27.2996 21.7076 26.9792C21.3873 26.6588 20.9528 26.4788 20.4997 26.4788C20.0466 26.4788 19.6121 26.6588 19.2917 26.9792C18.9713 27.2996 18.7913 27.7341 18.7913 28.1872V29.0413C18.7913 29.4944 18.9713 29.9289 19.2917 30.2493C19.6121 30.5697 20.0466 30.7497 20.4997 30.7497C20.9528 30.7497 21.3873 30.5697 21.7076 30.2493C22.028 29.9289 22.208 29.4944 22.208 29.0413V28.1872Z" fill="#468392"/>
</svg>
