<svg width="41" height="41" viewBox="0 0 41 41" fill="none" xmlns="http://www.w3.org/2000/svg">
<path d="M34.167 10.2507H20.5003L17.0837 6.83398H6.83366C5.9275 6.83398 5.05846 7.19395 4.41771 7.8347C3.77696 8.47545 3.41699 9.34449 3.41699 10.2507V30.7507C3.41699 31.6568 3.77696 32.5258 4.41771 33.1666C5.05846 33.8073 5.9275 34.1673 6.83366 34.1673H34.167C35.0731 34.1673 35.9422 33.8073 36.5829 33.1666C37.2237 32.5258 37.5837 31.6568 37.5837 30.7507V13.6673C37.5837 12.7612 37.2237 11.8921 36.5829 11.2514C35.9422 10.6106 35.0731 10.2507 34.167 10.2507ZM30.6478 29.0423L25.6253 26.104L20.6028 29.0423L21.9353 23.3536L17.5107 19.5269L23.3362 19.0315L25.6253 13.6673L27.9145 19.0315L33.7399 19.5269L29.3153 23.3536L30.6478 29.0423Z" fill="#468392"/>
</svg>
