<svg width="45" height="45" viewBox="0 0 45 45" fill="none" xmlns="http://www.w3.org/2000/svg">
<path d="M35.625 28.125H31.875V24.375H35.625M35.625 35.625H31.875V31.875H35.625M24.375 13.125H20.625V9.375H24.375M24.375 20.625H20.625V16.875H24.375M24.375 28.125H20.625V24.375H24.375M24.375 35.625H20.625V31.875H24.375M13.125 20.625H9.375V16.875H13.125M13.125 28.125H9.375V24.375H13.125M13.125 35.625H9.375V31.875H13.125M28.125 20.625V9.375L22.5 3.75L16.875 9.375V13.125H5.625V39.375H39.375V20.625H28.125Z" fill="#468392"/>
</svg>
