<svg width="41" height="37" viewBox="0 0 41 37" fill="none" xmlns="http://www.w3.org/2000/svg">
<path d="M24.7708 27.7507C23.575 27.7507 22.5642 27.3781 21.7385 26.6329C20.9128 25.8878 20.5 24.9757 20.5 23.8965C20.5 22.8173 20.9128 21.9052 21.7385 21.16C22.5642 20.4149 23.575 20.0423 24.7708 20.0423C25.9667 20.0423 26.9774 20.4149 27.8031 21.16C28.6288 21.9052 29.0417 22.8173 29.0417 23.8965C29.0417 24.9757 28.6288 25.8878 27.8031 26.6329C26.9774 27.3781 25.9667 27.7507 24.7708 27.7507ZM8.54167 33.9173C7.60208 33.9173 6.79803 33.6157 6.1295 33.0124C5.46097 32.4091 5.12614 31.6829 5.125 30.834V9.25065C5.125 8.40273 5.45983 7.67712 6.1295 7.07382C6.79917 6.47051 7.60322 6.16835 8.54167 6.16732H10.25V3.08398H13.6667V6.16732H27.3333V3.08398H30.75V6.16732H32.4583C33.3979 6.16732 34.2025 6.46948 34.8722 7.07382C35.5419 7.67815 35.8761 8.40376 35.875 9.25065V30.834C35.875 31.6819 35.5407 32.408 34.8722 33.0124C34.2037 33.6167 33.3991 33.9183 32.4583 33.9173H8.54167ZM8.54167 30.834H32.4583V15.4173H8.54167V30.834Z" fill="#468392"/>
</svg>
