<svg width="41" height="41" viewBox="0 0 41 41" fill="none" xmlns="http://www.w3.org/2000/svg">
<path d="M33.3125 5.125H7.6875C7.00788 5.125 6.3561 5.39498 5.87554 5.87554C5.39498 6.3561 5.125 7.00788 5.125 7.6875V33.3125C5.125 33.9921 5.39498 34.6439 5.87554 35.1245C6.3561 35.605 7.00788 35.875 7.6875 35.875H25.0949C25.4314 35.8755 25.7648 35.8095 26.0757 35.6805C26.3866 35.5516 26.6688 35.3624 26.9062 35.1239L35.1239 26.9062C35.3624 26.6688 35.5516 26.3866 35.6805 26.0757C35.8095 25.7648 35.8755 25.4314 35.875 25.0949V7.6875C35.875 7.00788 35.605 6.3561 35.1245 5.87554C34.6439 5.39498 33.9921 5.125 33.3125 5.125ZM15.375 14.0938H25.625C25.9648 14.0938 26.2907 14.2287 26.531 14.469C26.7713 14.7093 26.9062 15.0352 26.9062 15.375C26.9062 15.7148 26.7713 16.0407 26.531 16.281C26.2907 16.5213 25.9648 16.6562 25.625 16.6562H15.375C15.0352 16.6562 14.7093 16.5213 14.469 16.281C14.2287 16.0407 14.0938 15.7148 14.0938 15.375C14.0938 15.0352 14.2287 14.7093 14.469 14.469C14.7093 14.2287 15.0352 14.0938 15.375 14.0938ZM20.5 26.9062H15.375C15.0352 26.9062 14.7093 26.7713 14.469 26.531C14.2287 26.2907 14.0938 25.9648 14.0938 25.625C14.0938 25.2852 14.2287 24.9593 14.469 24.719C14.7093 24.4787 15.0352 24.3438 15.375 24.3438H20.5C20.8398 24.3438 21.1657 24.4787 21.406 24.719C21.6463 24.9593 21.7812 25.2852 21.7812 25.625C21.7812 25.9648 21.6463 26.2907 21.406 26.531C21.1657 26.7713 20.8398 26.9062 20.5 26.9062ZM15.375 21.7812C15.0352 21.7812 14.7093 21.6463 14.469 21.406C14.2287 21.1657 14.0938 20.8398 14.0938 20.5C14.0938 20.1602 14.2287 19.8343 14.469 19.594C14.7093 19.3537 15.0352 19.2188 15.375 19.2188H25.625C25.9648 19.2188 26.2907 19.3537 26.531 19.594C26.7713 19.8343 26.9062 20.1602 26.9062 20.5C26.9062 20.8398 26.7713 21.1657 26.531 21.406C26.2907 21.6463 25.9648 21.7812 25.625 21.7812H15.375ZM25.625 32.7824V25.625H32.784L25.625 32.7824Z" fill="#468392"/>
</svg>
