<svg width="18" height="13" viewBox="0 0 18 13" fill="none" xmlns="http://www.w3.org/2000/svg">
<g clip-path="url(#clip0_907_12359)">
<path d="M17.6025 2.02764C17.4992 1.63573 17.2978 1.27844 17.0183 0.991342C16.7388 0.704248 16.391 0.497366 16.0095 0.3913C14.6126 0 8.99087 0 8.99087 0C8.99087 0 3.36883 0.0118444 1.972 0.403144C1.59045 0.509217 1.24261 0.716109 0.963115 1.00322C0.683623 1.29033 0.482232 1.64763 0.378998 2.03956C-0.0435099 4.58886 -0.207408 8.4734 0.390599 10.9207C0.493844 11.3126 0.69524 11.6699 0.974731 11.957C1.25422 12.2441 1.60206 12.451 1.9836 12.5571C3.38043 12.9484 9.00233 12.9484 9.00233 12.9484C9.00233 12.9484 14.6242 12.9484 16.0209 12.5571C16.4025 12.451 16.7503 12.2441 17.0298 11.957C17.3093 11.6699 17.5107 11.3126 17.614 10.9207C18.0596 8.36781 18.197 4.48565 17.6025 2.02764Z" fill="#FF0000"/>
<path d="M7.20142 9.24849L11.8651 6.47385L7.20142 3.69922V9.24849Z" fill="white"/>
</g>
<defs>
<clipPath id="clip0_907_12359">
<rect width="18" height="13" fill="white"/>
</clipPath>
</defs>
</svg>
