<svg width="13" height="13" viewBox="0 0 13 13" fill="none" xmlns="http://www.w3.org/2000/svg">
<g clip-path="url(#clip0_907_12347)">
<path d="M9.63433 4.6808C10.5828 5.27902 11.7448 5.63101 12.9998 5.63101V3.50035C12.7622 3.5004 12.5254 3.47852 12.293 3.43508V5.11222C11.0381 5.11222 9.8763 4.76028 8.9276 4.1621V8.51019C8.9276 10.6854 6.92906 12.4485 4.46393 12.4485C3.54413 12.4485 2.68918 12.2032 1.979 11.7824C2.78957 12.5137 3.91996 12.9673 5.1705 12.9673C7.63583 12.9673 9.63443 11.2041 9.63443 9.02885V4.6808H9.63433ZM10.5062 2.53122C10.0215 2.06399 9.70319 1.46016 9.63433 0.792586V0.518555H8.96457C9.13317 1.36701 9.70827 2.09187 10.5062 2.53122ZM3.53819 10.1133C3.26737 9.79999 3.12098 9.41669 3.12163 9.02262C3.12163 8.0278 4.03575 7.22118 5.16355 7.22118C5.37369 7.22108 5.5826 7.24955 5.78293 7.30559V5.12728C5.54882 5.09899 5.31259 5.08693 5.07646 5.09137V6.78684C4.87604 6.73076 4.66702 6.70231 4.45677 6.70248C3.32902 6.70248 2.41496 7.50901 2.41496 8.50396C2.41496 9.20749 2.87184 9.81656 3.53819 10.1133Z" fill="#FF004F"/>
<path d="M8.92756 4.16205C9.87631 4.76023 11.038 5.11217 12.2929 5.11217V3.43504C11.5925 3.30338 10.9724 2.98044 10.5061 2.53122C9.70812 2.09182 9.13312 1.36696 8.96453 0.518555H7.20531V9.02876C7.2013 10.0209 6.28876 10.8242 5.1634 10.8242C4.5003 10.8242 3.91113 10.5453 3.53804 10.1132C2.87179 9.81656 2.41487 9.20744 2.41487 8.50401C2.41487 7.50915 3.32893 6.70252 4.45668 6.70252C4.67275 6.70252 4.88101 6.7322 5.07636 6.78689V5.09142C2.6545 5.13557 0.706787 6.88152 0.706787 9.0288C0.706787 10.1007 1.1918 11.0724 1.97901 11.7825C2.68919 12.2032 3.54409 12.4486 4.46394 12.4486C6.92912 12.4486 8.92761 10.6853 8.92761 8.51019L8.92756 4.16205Z" fill="black"/>
<path d="M12.2929 3.43514V2.98175C11.6612 2.9826 11.042 2.82652 10.5061 2.53137C10.9805 2.9896 11.6052 3.3056 12.2929 3.43523M8.96441 0.518655C8.94834 0.437589 8.93601 0.355981 8.92745 0.274031V0H6.49837V8.51029C6.49452 9.50233 5.58198 10.3056 4.45656 10.3056C4.13752 10.3061 3.82283 10.2402 3.53793 10.1135C3.91102 10.5455 4.50018 10.8243 5.16329 10.8243C6.2886 10.8243 7.20124 10.0211 7.2052 9.02895V0.5187L8.96441 0.518655ZM5.0764 5.09152V4.60877C4.87342 4.58428 4.66879 4.57203 4.46393 4.5721C1.9985 4.5721 0 6.33535 0 8.51029C0 9.8739 0.785434 11.0756 1.979 11.7825C1.19179 11.0725 0.706773 10.1008 0.706773 9.0289C0.706773 6.88166 2.65444 5.13567 5.0764 5.09152Z" fill="#00F2EA"/>
</g>
<defs>
<clipPath id="clip0_907_12347">
<rect width="13" height="13" fill="white"/>
</clipPath>
</defs>
</svg>
