<svg width="13" height="13" viewBox="0 0 13 13" fill="none" xmlns="http://www.w3.org/2000/svg">
<g clip-path="url(#clip0_907_12369)">
<path d="M9.95312 0H3.04688C1.36413 0 0 1.36413 0 3.04688V9.95312C0 11.6359 1.36413 13 3.04688 13H9.95312C11.6359 13 13 11.6359 13 9.95312V3.04688C13 1.36413 11.6359 0 9.95312 0Z" fill="url(#paint0_radial_907_12369)"/>
<path d="M9.95312 0H3.04688C1.36413 0 0 1.36413 0 3.04688V9.95312C0 11.6359 1.36413 13 3.04688 13H9.95312C11.6359 13 13 11.6359 13 9.95312V3.04688C13 1.36413 11.6359 0 9.95312 0Z" fill="url(#paint1_radial_907_12369)"/>
<path d="M6.50046 1.42188C5.12134 1.42188 4.94823 1.42792 4.40659 1.45255C3.86598 1.47733 3.49695 1.56289 3.17408 1.68848C2.84004 1.81817 2.55673 1.99169 2.27449 2.27403C1.992 2.55633 1.81848 2.83964 1.68838 3.17352C1.56244 3.49649 1.47677 3.86567 1.45245 4.40603C1.42822 4.94772 1.42188 5.12088 1.42188 6.50005C1.42188 7.87922 1.42797 8.05177 1.45255 8.59341C1.47743 9.13402 1.563 9.50305 1.68848 9.82592C1.81827 10.16 1.99179 10.4433 2.27414 10.7255C2.55633 11.008 2.83964 11.1819 3.17342 11.3116C3.49654 11.4372 3.86562 11.5228 4.40614 11.5476C4.94782 11.5722 5.12078 11.5782 6.49985 11.5782C7.87912 11.5782 8.05167 11.5722 8.5933 11.5476C9.13392 11.5228 9.50336 11.4372 9.82648 11.3116C10.1604 11.1819 10.4433 11.008 10.7254 10.7255C11.0079 10.4433 11.1814 10.16 11.3115 9.82607C11.4363 9.50305 11.5221 9.13392 11.5475 8.59351C11.5718 8.05187 11.5781 7.87922 11.5781 6.50005C11.5781 5.12088 11.5718 4.94782 11.5475 4.40614C11.5221 3.86552 11.4363 3.49654 11.3115 3.17368C11.1814 2.83964 11.0079 2.55633 10.7254 2.27403C10.443 1.99159 10.1605 1.81807 9.82617 1.68853C9.50244 1.56289 9.13321 1.47728 8.59259 1.45255C8.05091 1.42792 7.87846 1.42188 6.49888 1.42188H6.50046ZM6.0449 2.337C6.18013 2.3368 6.331 2.337 6.50046 2.337C7.85637 2.337 8.01704 2.34188 8.55248 2.3662C9.04759 2.38885 9.31633 2.47157 9.49533 2.54109C9.73233 2.63311 9.90128 2.74315 10.0789 2.92094C10.2566 3.09867 10.3666 3.26793 10.4589 3.50492C10.5284 3.68367 10.6112 3.95241 10.6338 4.44752C10.6581 4.98286 10.6634 5.14363 10.6634 6.49888C10.6634 7.85413 10.6581 8.01496 10.6338 8.55024C10.6111 9.04536 10.5284 9.31409 10.4589 9.49289C10.3669 9.72989 10.2566 9.89864 10.0789 10.0763C9.90118 10.254 9.73243 10.364 9.49533 10.4561C9.31653 10.5259 9.04759 10.6084 8.55248 10.6311C8.01714 10.6554 7.85637 10.6607 6.50046 10.6607C5.1445 10.6607 4.98377 10.6554 4.44849 10.6311C3.95337 10.6082 3.68464 10.5255 3.50548 10.456C3.26854 10.3639 3.09923 10.2539 2.9215 10.0762C2.74376 9.89843 2.63377 9.72959 2.5415 9.49249C2.47198 9.31369 2.38916 9.04495 2.36661 8.54984C2.34229 8.0145 2.33741 7.85373 2.33741 6.49761C2.33741 5.14155 2.34229 4.98159 2.36661 4.44625C2.38926 3.95114 2.47198 3.6824 2.5415 3.5034C2.63357 3.2664 2.74376 3.09715 2.92155 2.91941C3.09928 2.74168 3.26854 2.63164 3.50553 2.53942C3.68454 2.46959 3.95337 2.38707 4.44849 2.36432C4.91695 2.34315 5.09849 2.3368 6.0449 2.33573V2.337ZM9.21116 3.18018C8.87473 3.18018 8.60179 3.45287 8.60179 3.78935C8.60179 4.12577 8.87473 4.39872 9.21116 4.39872C9.54759 4.39872 9.82054 4.12577 9.82054 3.78935C9.82054 3.45292 9.54759 3.17997 9.21116 3.17997V3.18018ZM6.50046 3.89218C5.0603 3.89218 3.89264 5.05984 3.89264 6.50005C3.89264 7.94026 5.0603 9.10736 6.50046 9.10736C7.94066 9.10736 9.10792 7.94026 9.10792 6.50005C9.10792 5.05989 7.94056 3.89218 6.50036 3.89218H6.50046ZM6.50046 4.80731C7.43529 4.80731 8.1932 5.56512 8.1932 6.50005C8.1932 7.43488 7.43529 8.19279 6.50046 8.19279C5.56557 8.19279 4.80777 7.43488 4.80777 6.50005C4.80777 5.56512 5.56557 4.80731 6.50046 4.80731Z" fill="white"/>
</g>
<defs>
<radialGradient id="paint0_radial_907_12369" cx="0" cy="0" r="1" gradientUnits="userSpaceOnUse" gradientTransform="translate(3.45312 14.0013) rotate(-90) scale(12.884 11.9831)">
<stop stop-color="#FFDD55"/>
<stop offset="0.1" stop-color="#FFDD55"/>
<stop offset="0.5" stop-color="#FF543E"/>
<stop offset="1" stop-color="#C837AB"/>
</radialGradient>
<radialGradient id="paint1_radial_907_12369" cx="0" cy="0" r="1" gradientUnits="userSpaceOnUse" gradientTransform="translate(-2.17755 0.936457) rotate(78.681) scale(5.7592 23.7396)">
<stop stop-color="#3771C8"/>
<stop offset="0.128" stop-color="#3771C8"/>
<stop offset="1" stop-color="#6600FF" stop-opacity="0"/>
</radialGradient>
<clipPath id="clip0_907_12369">
<rect width="13" height="13" fill="white"/>
</clipPath>
</defs>
</svg>
