<svg width="37" height="37" viewBox="0 0 37 37" fill="none" xmlns="http://www.w3.org/2000/svg">
<path d="M27.8892 18.1448L30.1554 27.9035L21.5837 22.7235L13.0121 27.9035L15.2629 18.1448L7.70873 11.5618L17.6833 10.7293L21.5837 1.54102L25.4842 10.7293L35.4587 11.5618L27.8892 18.1448ZM3.08373 19.1623C3.37665 19.1623 3.66957 19.0698 3.93165 18.9002L8.86498 15.6473L6.44457 13.5506L2.23582 16.3256C1.52511 16.7881 1.32777 17.7285 1.78873 18.4993C2.09707 18.9156 2.5904 19.1623 3.08373 19.1623ZM1.78873 33.2223C2.09707 33.6693 2.5904 33.916 3.08373 33.916C3.37665 33.916 3.66957 33.8389 3.93165 33.6693L10.2679 29.4914L10.7921 27.3793L11.27 25.1439L2.23582 31.0793C1.52511 31.5573 1.32777 32.5131 1.78873 33.2223ZM2.23582 23.7102C1.89535 23.9338 1.65722 24.2831 1.57345 24.6817C1.48967 25.0803 1.56707 25.4959 1.78873 25.8377C2.09707 26.3002 2.5904 26.5314 3.08373 26.5314C3.37665 26.5314 3.66957 26.4543 3.93165 26.2848L12.2875 20.8118L12.7037 18.9773L11.2854 17.7285L2.23582 23.7102Z" fill="#468392"/>
</svg>
